<?xml version="1.0" standalone="no"?>
<!DOCTYPE svg PUBLIC "-//W3C//DTD SVG 20010904//EN"
 "http://www.w3.org/TR/2001/REC-SVG-20010904/DTD/svg10.dtd">
<svg version="1.0" xmlns="http://www.w3.org/2000/svg"
 width="219.000000pt" height="205.000000pt" viewBox="0 0 219.000000 205.000000"
 preserveAspectRatio="xMidYMid meet">
<metadata>
Created by potrace 1.16, written by Peter Selinger 2001-2019
</metadata>
<g transform="translate(0.000000,205.000000) scale(0.100000,-0.100000)"
fill="#000000" stroke="none">
<path d="M0 1025 l0 -1025 1095 0 1095 0 0 1025 0 1025 -1095 0 -1095 0 0
-1025z m1600 815 c69 -47 122 -104 154 -168 25 -50 51 -164 42 -187 -11 -28
10 -24 44 10 l37 36 21 -49 c43 -99 53 -203 28 -274 -14 -39 -9 -45 25 -28 18
10 19 7 19 -58 0 -185 -106 -302 -274 -302 -62 0 -68 2 -51 14 10 7 20 26 22
42 3 16 8 34 14 40 5 6 6 14 2 17 -3 4 0 8 8 9 8 1 -11 4 -41 7 l-55 6 61 19
c37 11 61 23 61 32 0 8 -4 14 -10 14 -11 0 -158 -37 -184 -47 -17 -6 -17 -5 1
15 19 22 19 22 0 22 -16 0 -17 2 -4 10 10 7 11 10 3 11 -28 3 -32 4 -40 12 -4
5 -3 7 2 5 6 -2 10 2 10 7 0 6 -4 9 -9 7 -5 -2 -4 3 2 11 7 8 9 16 6 19 -2 3
10 18 28 33 18 15 39 37 47 47 13 19 12 19 -8 9 -12 -7 -18 -17 -15 -23 4 -6
3 -8 -4 -4 -6 3 -61 -30 -123 -75 l-112 -82 7 67 c4 37 9 81 11 99 9 60 -35
-87 -61 -208 -15 -66 -33 -131 -41 -145 -12 -22 -13 -22 -8 -3 5 18 2 22 -15
20 -11 -1 -20 -5 -20 -10 0 -4 -4 -5 -10 -2 -5 3 -22 -5 -37 -19 -35 -33 -48
-33 -83 3 -16 16 -32 26 -35 23 -9 -9 -36 -11 -30 -2 3 4 -2 10 -10 14 -10 3
-15 -1 -15 -12 -1 -37 -18 15 -39 118 -12 58 -30 134 -40 170 l-20 65 5 -65
c3 -36 7 -73 9 -82 2 -10 0 -18 -5 -18 -4 0 -61 38 -126 85 -65 46 -120 82
-123 79 -3 -3 1 -10 10 -15 19 -10 89 -78 89 -86 0 -3 -7 -3 -14 0 -11 4 -13
1 -9 -10 4 -11 2 -14 -5 -9 -7 4 -10 -1 -7 -14 2 -11 0 -22 -6 -25 -5 -4 -5
-14 1 -26 13 -24 11 -24 -81 1 -66 17 -134 26 -101 13 6 -2 10 -8 7 -13 -3 -4
17 -14 43 -21 l47 -13 -40 -6 c-22 -4 -32 -8 -22 -9 15 -1 22 -12 18 -33 0 -5
3 -8 7 -8 5 0 9 -14 9 -31 0 -17 5 -34 12 -38 7 -5 -9 -11 -38 -14 -53 -6
-138 11 -191 38 -72 37 -127 133 -137 238 -7 83 -1 102 28 87 28 -15 35 -6 20
27 -26 58 -8 212 36 297 l15 28 37 -36 38 -37 6 71 c7 89 47 178 106 238 40
41 155 122 173 122 5 0 -1 -19 -13 -42 -28 -54 -36 -161 -19 -224 16 -57 267
-494 288 -502 4 -1 29 42 56 96 36 74 47 104 41 122 -5 17 -4 22 6 18 8 -3 40
-14 72 -24 32 -10 63 -26 67 -35 5 -9 22 -20 37 -24 38 -9 52 -22 46 -44 -4
-15 -12 -18 -42 -14 -29 4 -39 1 -44 -11 -7 -16 41 -146 53 -146 3 0 32 44 64
98 31 53 87 144 122 202 36 58 84 143 107 189 38 76 42 90 42 160 0 62 -5 87
-27 134 -26 56 -26 57 -5 46 12 -7 47 -29 77 -49z m-1277 -1017 c48 -26 61
-28 175 -28 l122 0 -80 -27 c-44 -14 -98 -37 -120 -49 l-40 -23 -36 35 c-35
33 -94 124 -94 144 1 6 5 2 11 -8 6 -9 33 -29 62 -44z m1587 -3 c-22 -43 -86
-120 -101 -120 -4 0 -46 18 -93 40 -47 22 -92 40 -100 40 -9 0 -16 3 -16 8 0
4 47 8 105 9 115 2 182 23 207 62 22 35 21 5 -2 -39z m-1343 -73 c4 -8 16 -16
26 -20 9 -3 17 -13 17 -22 0 -8 5 -15 12 -15 21 0 -5 -18 -31 -22 -16 -2 -27
4 -35 17 -6 11 -13 22 -16 25 -3 3 -6 15 -8 28 -4 25 21 31 35 9z m1123 -46
c0 -28 -16 -42 -49 -43 -17 -1 -34 2 -38 5 -3 4 0 7 8 7 8 0 22 9 32 20 9 11
14 20 11 20 -3 0 -3 4 1 10 9 14 35 0 35 -19z m-933 -14 c-25 -21 -26 -26 -16
-55 14 -40 -1 -61 -65 -92 -43 -20 -85 -29 -57 -11 7 5 15 20 16 35 3 22 1 24
-15 16 -10 -5 -30 -24 -44 -41 -21 -25 -31 -30 -52 -25 -42 11 -99 51 -133 95
l-33 41 27 -10 c53 -20 159 -12 257 20 51 16 100 34 108 40 29 19 35 9 7 -13z
m763 -19 c96 -34 218 -47 271 -29 18 6 34 10 36 8 7 -8 -89 -98 -126 -116 -50
-26 -77 -27 -84 -2 -2 10 -14 24 -25 30 -18 9 -19 8 -14 -12 3 -12 10 -26 16
-30 6 -5 -4 -6 -24 -3 -34 6 -136 66 -112 66 6 0 11 3 11 8 -4 21 2 42 12 42
6 0 24 -9 40 -21 16 -11 29 -18 29 -15 0 3 -30 26 -67 52 -80 56 -96 70 -68
59 11 -4 58 -21 105 -37z m-210 -375 c0 -17 -28 -53 -41 -53 -4 0 -1 12 7 28
7 15 14 33 14 40 0 7 5 10 10 7 6 -3 10 -13 10 -22z m-401 -18 c11 -19 17 -35
14 -35 -14 0 -43 34 -43 52 0 26 5 23 29 -17z m241 5 c0 -24 -34 -60 -55 -60
-21 0 -68 48 -59 61 4 6 12 3 21 -10 20 -30 61 -27 75 4 14 30 18 31 18 5z"/>
<path d="M1108 1288 c9 -9 15 -9 24 0 9 9 7 12 -12 12 -19 0 -21 -3 -12 -12z"/>
<path d="M346 751 c-3 -5 1 -14 9 -21 10 -9 15 -9 15 -1 0 6 -5 11 -11 11 -5
0 -7 5 -4 10 3 6 4 10 1 10 -3 0 -7 -4 -10 -9z"/>
<path d="M675 624 c-18 -16 -22 -22 -9 -15 18 9 53 42 43 41 -2 -1 -17 -12
-34 -26z"/>
</g>
</svg>
